 http://img109.imageshack.us/img109/7774/396269216701307511thors.jpg

Country.......: USA
Genre.........: Animation, Action, Adventure
Date release..: 17.05.2011 [World]
Director......: Sam Liu
Writers.......: Jack Kirby, Stan Lee
Duration......: 74 min.
More..........: http://www.imdb.com/title/tt1667903
Trailer.......: http://www.imdb.com/video/screenplay/vi2896141593
Trailer.......:

Pilot :
The young Norse god Thor embarks on a quest with his brother Loki to find and recover a legendary sword. 

Cats :
Jay Brazeau   	 ...  	Volstagg (voice)
Chris Britton 	... 	Odin (voice) (as Christopher Britton)
Clancy Brown 	... 	Frost Giant (voice)
Grey DeLisle 	... 	Sif (voice)
Paul Dobson 	... 	Hogun (voice)
Brian Drummond 	... 	Fenris (voice)
Rick Gomez 	... 	Loki (voice)
Jonathan Holmes 	... 	Fandral (voice)
Matthew Wolf 	... 	Thor (voice) 

Data Technical :
!!! SAMPLE !!!
Audio.....: English
Subtitles.: None
Format                           : AVI
Format/Info                      : Audio Video Interleave
File size                        : 697 MiB
Duration                         : 1h 13mn
Overall bit rate                 : 1 321 Kbps
Writing application              : VirtualDubMod 1.5.10.2 (build 2540/release)
Writing library                  : VirtualDubMod build 2540/release
Video
ID                               : 0
Format                           : MPEG-4 Visual
Format profile                   : Advanced Simple@L5
Format settings, BVOP            : Yes
Format settings, QPel            : No
Format settings, GMC             : No warppoints
Format settings, Matrix          : Default (H.263)
Codec ID                         : XVID
Codec ID/Hint                    : XviD
Duration                         : 1h 13mn
Bit rate                         : 863 Kbps
Width                            : 624 pixels
Height                           : 352 pixels
Display aspect ratio             : 16:9
Frame rate                       : 25.000 fps
Color space                      : YUV
Chroma subsampling               : 4:2:0
Bit depth                        : 8 bits
Scan type                        : Progressive
Bits/(Pixel*Frame)               : 0.157
Stream size                      : 456 MiB (65%)
Writing library                  : XviD 1.2.1 (UTC 2008-12-04)
Audio
ID                               : 1
Format                           : AC-3
Format/Info                      : Audio Coding 3
Mode extension                   : CM (complete main)
Codec ID                         : 2000
Duration                         : 1h 13mn
Bit rate mode                    : Constant
Bit rate                         : 448 Kbps
Channel(s)                       : 6 channels
Channel positions                : Front: L C R, Side: L R, LFE
Sampling rate                    : 48.0 KHz
Bit depth                        : 16 bits
Stream size                      : 236 MiB (34%)
Alignment                        : Split accross interleaves
Interleave, duration             : 40 ms (1.00 video frame)
Interleave, preload duration     : 500 ms

Screen : 
http://img29.imageshack.us/img29/5141/thortalesofasgard2011s1.jpg 
http://img716.imageshack.us/img716/9273/thortalesofasgard2011s2.jpg 
http://img862.imageshack.us/img862/2289/thortalesofasgard2011s3.jpg 
http://img709.imageshack.us/img709/2122/thortalesofasgard2011s4.jpg 
http://img12.imageshack.us/img12/4493/thortalesofasgard2011s5.jpg